<svg width="18" height="17" viewBox="0 0 18 17" fill="none" xmlns="http://www.w3.org/2000/svg">
<path opacity="0.25" d="M16.8346 15.531L12.115 10.8114C13.0251 9.7214 13.5736 8.31991 13.5736 6.79207C13.5736 3.32624 10.7535 0.506104 7.28768 0.506104C3.82111 0.506104 1.00098 3.32624 1.00098 6.79207C1.00098 10.2579 3.82111 13.078 7.28695 13.078C8.81416 13.078 10.2157 12.5287 11.3063 11.6194L16.0259 16.339C16.1373 16.4504 16.2837 16.5061 16.4302 16.5061C16.5766 16.5061 16.723 16.4504 16.8344 16.339C17.058 16.1154 17.0581 15.7546 16.8346 15.531ZM2.14395 6.79207C2.14395 3.95621 4.45116 1.64901 7.28702 1.64901C10.1229 1.64901 12.4301 3.95621 12.4301 6.79207C12.4301 9.62794 10.1229 11.9351 7.28702 11.9351C4.45116 11.9351 2.14395 9.62794 2.14395 6.79207Z" fill="#282828" stroke="#282828"/>
</svg>
